<?xml version="1.0" encoding="UTF-8" standalone="no"?>
<!-- Created with Inkscape (http://www.inkscape.org/) -->

<svg
   xmlns:dc="http://purl.org/dc/elements/1.1/"
   xmlns:cc="http://creativecommons.org/ns#"
   xmlns:rdf="http://www.w3.org/1999/02/22-rdf-syntax-ns#"
   xmlns:svg="http://www.w3.org/2000/svg"
   xmlns="http://www.w3.org/2000/svg"
   xmlns:sodipodi="http://sodipodi.sourceforge.net/DTD/sodipodi-0.dtd"
   xmlns:inkscape="http://www.inkscape.org/namespaces/inkscape"
   id="svg2"
   version="1.1"
   inkscape:version="0.91 r13725"
   xml:space="preserve"
   width="1771.65"
   height="1771.65"
   viewBox="0 0 1771.65 1771.65"
   sodipodi:docname="favicon.svg"><metadata
     id="metadata8"><rdf:RDF><cc:Work
         rdf:about=""><dc:format>image/svg+xml</dc:format><dc:type
           rdf:resource="http://purl.org/dc/dcmitype/StillImage" /><dc:title></dc:title></cc:Work></rdf:RDF></metadata><defs
     id="defs6"><clipPath
       clipPathUnits="userSpaceOnUse"
       id="clipPath16"><path
         d="m 0,1417.32 1417.32,0 L 1417.32,0 0,0 0,1417.32 Z"
         id="path18"
         inkscape:connector-curvature="0" /></clipPath></defs><sodipodi:namedview
     pagecolor="#ffffff"
     bordercolor="#666666"
     borderopacity="1"
     objecttolerance="10"
     gridtolerance="10"
     guidetolerance="10"
     inkscape:pageopacity="0"
     inkscape:pageshadow="2"
     inkscape:window-width="640"
     inkscape:window-height="480"
     id="namedview4"
     showgrid="false"
     inkscape:zoom="0.13320915"
     inkscape:cx="885.82501"
     inkscape:cy="885.82501"
     inkscape:window-x="0"
     inkscape:window-y="24"
     inkscape:window-maximized="0"
     inkscape:current-layer="g10" /><g
     id="g10"
     inkscape:groupmode="layer"
     inkscape:label="lovo-vector"
     transform="matrix(1.25,0,0,-1.25,0,1771.65)"><g
       id="g12"><g
         id="g14"
         clip-path="url(#clipPath16)"><g
           id="g20"
           transform="translate(1272.0215,841.0015)"><path
             d="M 0,0 1.739,0 C 3.76,0 5.402,0.681 5.402,2.33 5.402,3.786 4.345,4.759 2.026,4.759 1.062,4.759 0.386,4.656 0,4.561 L 0,0 Z m -0.098,-8.923 -3.663,0 0,15.909 c 1.445,0.198 3.469,0.485 6.078,0.485 2.992,0 4.332,-0.485 5.4,-1.261 0.958,-0.68 1.635,-1.84 1.635,-3.397 0,-1.944 -1.448,-3.2 -3.276,-3.779 l 0,-0.196 C 7.617,-1.647 8.389,-2.903 8.873,-5.041 9.352,-7.47 9.74,-8.336 10.032,-8.923 l -3.859,0 c -0.476,0.587 -0.771,1.944 -1.256,3.882 -0.285,1.645 -1.251,2.423 -3.274,2.423 l -1.741,0 0,-6.305 z m -9.742,8.249 c 0,-7.088 5.309,-12.71 12.342,-12.71 6.85,-0.096 12.055,5.622 12.055,12.611 0,7.078 -5.205,12.809 -12.24,12.809 -6.848,0 -12.157,-5.731 -12.157,-12.71 m 28.452,0 c 0,-8.93 -7.133,-16.006 -16.204,-16.006 -9.06,0 -16.292,7.076 -16.292,16.006 0,8.921 7.232,15.907 16.386,15.907 8.977,0 16.11,-6.986 16.11,-15.907"
             style="fill:#717373;fill-opacity:1;fill-rule:nonzero;stroke:none"
             id="path22"
             inkscape:connector-curvature="0" /></g><g
           id="g24"
           transform="translate(922.7891,810.8013)"><path
             d="m 0,0 c -0.11,41.348 23.869,74.978 53.564,75.113 5.729,0.026 11.266,-1.133 16.479,-3.28 -8.516,5.284 -18.127,8.305 -28.278,8.305 -34.044,0 -61.646,-36.484 -61.646,-81.492 0,-45.009 28.203,-77.692 62.99,-73.003 10.373,1.399 20.122,5.739 28.678,12.185 -5.261,-2.86 -10.881,-4.779 -16.727,-5.541 C 24.761,-71.666 0.111,-41.348 0,0"
             style="fill:#0075b3;fill-opacity:1;fill-rule:nonzero;stroke:none"
             id="path26"
             inkscape:connector-curvature="0" /></g><g
           id="g28"
           transform="translate(1022.5391,817.1172)"><path
             d="M 0,0 C -0.506,28.723 -16.646,52.748 -38.451,60.945 -18.355,49.539 -4.316,26.573 -3.861,-0.265 -3.406,-27.104 -16.856,-51.958 -36.971,-66.12 -15.025,-54.924 0.505,-28.727 0,0"
             style="fill:#0075b3;fill-opacity:1;fill-rule:nonzero;stroke:none"
             id="path30"
             inkscape:connector-curvature="0" /></g><g
           id="g32"
           transform="translate(947.2969,808.9146)"><path
             d="m 0,0 c 0,-32.396 18.662,-56.036 41.684,-52.796 23.022,3.24 41.285,29.504 40.793,58.662 C 81.985,35.021 63.324,58.656 40.794,58.656 18.264,58.656 0,32.396 0,0"
             style="fill:#0075b3;fill-opacity:1;fill-rule:nonzero;stroke:none"
             id="path34"
             inkscape:connector-curvature="0" /></g><g
           id="g36"
           transform="translate(178.3003,842.0469)"><path
             d="m 0,0 c -18.408,0 -27.61,-11.755 -27.61,-35.266 0,-23.511 9.202,-35.265 27.61,-35.265 l 39.024,0 0,-11.97 L 0,-82.372 c -26.335,0.085 -39.502,15.788 -39.502,47.106 0,31.491 13.167,47.236 39.502,47.236 l 39.024,0 L 39.024,0 0,0 Z"
             style="fill:#717373;fill-opacity:1;fill-rule:nonzero;stroke:none"
             id="path38"
             inkscape:connector-curvature="0" /></g><g
           id="g40"
           transform="translate(244.9346,807.811)"><path
             d="m 0,0 c 0,-24.197 9.955,-36.295 29.866,-36.295 19.91,0 29.865,12.098 29.865,36.295 0,22.823 -9.909,34.236 -29.729,34.236 C 10,34.236 0,22.823 0,0 m 71.623,0 c 0,-32.177 -13.919,-48.265 -41.757,-48.265 -27.839,0 -41.758,16.13 -41.758,48.394 0,30.717 13.965,46.077 41.894,46.077 C 57.75,46.206 71.623,30.803 71.623,0"
             style="fill:#717373;fill-opacity:1;fill-rule:nonzero;stroke:none"
             id="path42"
             inkscape:connector-curvature="0" /></g><g
           id="g44"
           transform="translate(347.5854,815.791)"><path
             d="m 0,0 0,-56.245 -11.892,0 0,56.245 c 0,25.484 13.669,38.226 41.006,38.226 l 0.068,0 C 56.564,38.226 70.256,25.484 70.256,0 l 0,-56.245 -11.891,0 0,56.245 c 0,17.504 -9.729,26.256 -29.183,26.256 C 9.727,26.256 0,17.504 0,0"
             style="fill:#717373;fill-opacity:1;fill-rule:nonzero;stroke:none"
             id="path46"
             inkscape:connector-curvature="0" /></g><g
           id="g48"
           transform="translate(462.6748,800.7964)"><path
             d="m 0,0 c -17.952,0 -26.927,8.881 -26.927,26.643 0,17.718 8.975,26.577 26.927,26.577 l 40.186,0 0,-11.97 -40.186,0 c -10.388,0 -15.582,-4.89 -15.582,-14.672 0,-9.74 5.194,-14.608 15.582,-14.608 l 19.888,0 c 17.95,0 26.927,-9.01 26.927,-27.029 0,-17.462 -8.977,-26.191 -26.927,-26.191 l -40.254,0 0,11.969 40.254,0 c 10.023,0 15.035,4.827 15.035,14.48 C 34.968,-4.934 29.957,0 19.888,0 L 0,0 Z"
             style="fill:#717373;fill-opacity:1;fill-rule:nonzero;stroke:none"
             id="path50"
             inkscape:connector-curvature="0" /></g><g
           id="g52"
           transform="translate(536.2793,797.7075)"><path
             d="m 0,0 c 0,-17.462 9.727,-26.192 29.183,-26.192 19.454,0 29.182,8.73 29.182,26.192 l 0,56.309 11.891,0 0,-56.309 c 0,-25.442 -13.463,-38.162 -40.39,-38.162 l -0.752,0 c -27.337,0 -41.006,12.72 -41.006,38.162 l 0,56.309 L 0,56.309 0,0 Z"
             style="fill:#717373;fill-opacity:1;fill-rule:nonzero;stroke:none"
             id="path54"
             inkscape:connector-curvature="0" /></g><g
           id="g56"
           transform="translate(625.1938,759.5459)"><path
             d="m 0,0 0,94.471 11.892,0 0,-82.501 57.066,0 L 68.958,0 0,0 Z"
             style="fill:#717373;fill-opacity:1;fill-rule:nonzero;stroke:none"
             id="path58"
             inkscape:connector-curvature="0" /></g><g
           id="g60"
           transform="translate(747.2539,759.5459)"><path
             d="m 0,0 -11.893,0 0,82.501 -30.48,0 0,11.97 72.853,0 0,-11.97 L 0,82.501 0,0 Z"
             style="fill:#717373;fill-opacity:1;fill-rule:nonzero;stroke:none"
             id="path62"
             inkscape:connector-curvature="0" /></g><g
           id="g64"
           transform="translate(860.9072,842.0469)"><path
             d="m 0,0 -30.275,0 c -18.726,0 -28.089,-11.776 -28.089,-35.33 0,-23.468 9.363,-35.201 28.089,-35.201 l 15.65,0 0,-11.97 -14.967,-0.064 -0.957,0 c -26.472,0 -39.707,15.895 -39.707,47.686 0,31.232 13.327,46.849 39.981,46.849 l 42.168,0 0,-94.471 L 0,-82.501 0,0 Z"
             style="fill:#717373;fill-opacity:1;fill-rule:nonzero;stroke:none"
             id="path66"
             inkscape:connector-curvature="0" /></g><path
           d="m 1067.3,756.681 -11.892,0 0,94.471 11.892,0 0,-94.471 z"
           style="fill:#717373;fill-opacity:1;fill-rule:nonzero;stroke:none"
           id="path68"
           inkscape:connector-curvature="0" /><g
           id="g70"
           transform="translate(1128.124,756.6807)"><path
             d="m 0,0 -11.892,0 0,82.501 -30.48,0 0,11.97 72.853,0 0,-11.97 L 0,82.501 0,0 Z"
             style="fill:#717373;fill-opacity:1;fill-rule:nonzero;stroke:none"
             id="path72"
             inkscape:connector-curvature="0" /></g><g
           id="g74"
           transform="translate(1199.9531,797.9312)"><path
             d="m 0,0 c -17.952,0 -26.927,8.881 -26.927,26.643 0,17.718 8.975,26.577 26.927,26.577 l 40.186,0 0,-11.97 -40.186,0 c -10.388,0 -15.582,-4.89 -15.582,-14.672 0,-9.74 5.194,-14.608 15.582,-14.608 l 19.888,0 c 17.95,0 26.926,-9.01 26.926,-27.029 0,-17.462 -8.976,-26.191 -26.926,-26.191 l -40.254,0 0,11.969 40.254,0 c 10.022,0 15.035,4.827 15.035,14.48 C 34.968,-4.934 29.956,0 19.888,0 L 0,0 Z"
             style="fill:#717373;fill-opacity:1;fill-rule:nonzero;stroke:none"
             id="path76"
             inkscape:connector-curvature="0" /></g><path
           d="m 151.438,737.136 3.14,0 0,-28.184 -3.14,0 0,28.184 z"
           style="fill:#929292;fill-opacity:1;fill-rule:nonzero;stroke:none"
           id="path78"
           inkscape:connector-curvature="0" /><g
           id="g80"
           transform="translate(181.1602,736.9995)"><path
             d="m 0,0 0,-28.047 -3.352,0 -16.903,23.379 0,-23.379 -3.117,0 0,28.047 3.376,0 16.88,-23.379 L -3.116,0 0,0 Z"
             style="fill:#929292;fill-opacity:1;fill-rule:nonzero;stroke:none"
             id="path82"
             inkscape:connector-curvature="0" /></g><g
           id="g84"
           transform="translate(202.6436,736.9995)"><path
             d="m 0,0 0,-2.578 -14.188,0 0,-10.117 11.213,0 0,-2.578 -11.213,0 0,-12.774 -3.117,0 0,28.047 L 0,0 Z"
             style="fill:#929292;fill-opacity:1;fill-rule:nonzero;stroke:none"
             id="path86"
             inkscape:connector-curvature="0" /></g><g
           id="g88"
           transform="translate(211.0708,731.2378)"><path
             d="m 0,0 c -2.77,-2.292 -4.155,-5.052 -4.155,-8.281 0,-3.23 1.385,-5.99 4.155,-8.281 C 2.77,-18.854 6.106,-20 10.01,-20 c 3.903,0 7.239,1.146 10.01,3.438 2.769,2.291 4.154,5.051 4.154,8.281 0,3.229 -1.385,5.989 -4.154,8.281 C 17.249,2.292 13.913,3.438 10.01,3.438 6.106,3.438 2.77,2.292 0,0 m -2.195,-18.379 c -3.385,2.786 -5.076,6.152 -5.076,10.098 0,3.945 1.691,7.317 5.076,10.117 3.367,2.786 7.436,4.18 12.205,4.18 4.768,0 8.844,-1.394 12.229,-4.18 3.367,-2.8 5.052,-6.172 5.052,-10.117 0,-3.946 -1.685,-7.312 -5.052,-10.098 -3.385,-2.8 -7.461,-4.199 -12.229,-4.199 -4.769,0 -8.838,1.399 -12.205,4.199"
             style="fill:#929292;fill-opacity:1;fill-rule:nonzero;stroke:none"
             id="path90"
             inkscape:connector-curvature="0" /></g><g
           id="g92"
           transform="translate(253.3521,724.2065)"><path
             d="m 0,0 c 1.7,0 3.155,0.495 4.368,1.484 1.195,1.003 1.794,2.207 1.794,3.614 0,1.406 -0.599,2.61 -1.794,3.613 C 3.155,9.713 1.7,10.215 0,10.215 l -9.065,0 L -9.065,0 0,0 Z m 10.505,-15.254 -3.493,0 -7.956,12.676 -8.121,0 0,-12.656 -3.117,0 0,28.027 12.182,0 c 2.565,0 4.753,-0.755 6.563,-2.266 C 8.373,9.03 9.278,7.22 9.278,5.098 9.278,3.34 8.625,1.764 7.318,0.371 6.043,-0.983 4.407,-1.882 2.408,-2.324 l 8.097,-12.93 z"
             style="fill:#929292;fill-opacity:1;fill-rule:nonzero;stroke:none"
             id="path94"
             inkscape:connector-curvature="0" /></g><g
           id="g96"
           transform="translate(298.3721,736.9995)"><path
             d="m 0,0 0,-28.027 -3.092,0 0,21.797 -11.403,-21.817 -3.4,0 -11.378,21.817 0,-21.797 -3.117,0 0,28.027 3.258,0 12.937,-24.805 L -3.234,0 0,0 Z"
             style="fill:#929292;fill-opacity:1;fill-rule:nonzero;stroke:none"
             id="path98"
             inkscape:connector-curvature="0" /></g><g
           id="g100"
           transform="translate(311.4033,718.5425)"><path
             d="m 0,0 11.497,0 0,15.02 L 0,0 Z m 14.59,18.457 0,-28.047 -3.093,0 0,7.012 -13.456,0 -5.359,-7.012 -3.683,0 21.436,28.047 4.155,0 z"
             style="fill:#929292;fill-opacity:1;fill-rule:nonzero;stroke:none"
             id="path102"
             inkscape:connector-curvature="0" /></g><g
           id="g104"
           transform="translate(349.4116,736.9995)"><path
             d="m 0,0 0,-2.578 -8.876,0 0,-25.469 -3.117,0 0,25.469 -8.9,0 0,2.578 L 0,0 Z"
             style="fill:#929292;fill-opacity:1;fill-rule:nonzero;stroke:none"
             id="path106"
             inkscape:connector-curvature="0" /></g><path
           d="m 351.017,737.136 3.14,0 0,-28.184 -3.14,0 0,28.184 z"
           style="fill:#929292;fill-opacity:1;fill-rule:nonzero;stroke:none"
           id="path108"
           inkscape:connector-curvature="0" /><g
           id="g110"
           transform="translate(363.0566,731.2378)"><path
             d="m 0,0 c -2.77,-2.292 -4.155,-5.052 -4.155,-8.281 0,-3.23 1.385,-5.99 4.155,-8.281 C 2.77,-18.854 6.106,-20 10.01,-20 c 3.903,0 7.239,1.146 10.01,3.438 2.769,2.291 4.154,5.051 4.154,8.281 0,3.229 -1.385,5.989 -4.154,8.281 C 17.249,2.292 13.913,3.438 10.01,3.438 6.106,3.438 2.77,2.292 0,0 m -2.195,-18.379 c -3.385,2.786 -5.076,6.152 -5.076,10.098 0,3.945 1.691,7.317 5.076,10.117 3.367,2.786 7.436,4.18 12.205,4.18 4.768,0 8.844,-1.394 12.229,-4.18 3.367,-2.8 5.052,-6.172 5.052,-10.117 0,-3.946 -1.685,-7.312 -5.052,-10.098 -3.385,-2.8 -7.461,-4.199 -12.229,-4.199 -4.769,0 -8.838,1.399 -12.205,4.199"
             style="fill:#929292;fill-opacity:1;fill-rule:nonzero;stroke:none"
             id="path112"
             inkscape:connector-curvature="0" /></g><g
           id="g114"
           transform="translate(416.457,736.9995)"><path
             d="m 0,0 0,-28.047 -3.352,0 -16.903,23.379 0,-23.379 -3.117,0 0,28.047 3.376,0 16.88,-23.379 L -3.116,0 0,0 Z"
             style="fill:#929292;fill-opacity:1;fill-rule:nonzero;stroke:none"
             id="path116"
             inkscape:connector-curvature="0" /></g><g
           id="g118"
           transform="translate(450.7354,736.9995)"><path
             d="m 0,0 0,-2.578 -8.876,0 0,-25.469 -3.117,0 0,25.469 -8.9,0 0,2.578 L 0,0 Z"
             style="fill:#929292;fill-opacity:1;fill-rule:nonzero;stroke:none"
             id="path120"
             inkscape:connector-curvature="0" /></g><g
           id="g122"
           transform="translate(470.8257,736.9995)"><path
             d="m 0,0 0,-2.578 -14.188,0 0,-10.117 11.213,0 0,-2.578 -11.213,0 0,-10.196 14.188,0 0,-2.578 -17.305,0 0,28.047 L 0,0 Z"
             style="fill:#929292;fill-opacity:1;fill-rule:nonzero;stroke:none"
             id="path124"
             inkscape:connector-curvature="0" /></g><g
           id="g126"
           transform="translate(489.3574,711.2573)"><path
             d="m 0,0 c 2.786,0 5.351,0.632 7.696,1.895 l 0,-2.969 C 5.272,-2.077 2.707,-2.578 0,-2.578 c -4.769,0 -8.837,1.399 -12.205,4.199 -3.384,2.786 -5.076,6.152 -5.076,10.098 0,3.945 1.692,7.311 5.076,10.097 3.368,2.8 7.436,4.2 12.205,4.2 2.707,0 5.272,-0.502 7.696,-1.504 l 0,-2.969 C 5.351,22.806 2.786,23.437 0,23.437 c -3.903,0 -7.24,-1.145 -10.009,-3.437 -2.771,-2.292 -4.156,-5.052 -4.156,-8.281 0,-3.23 1.385,-5.99 4.156,-8.281 C -7.24,1.146 -3.903,0 0,0"
             style="fill:#929292;fill-opacity:1;fill-rule:nonzero;stroke:none"
             id="path128"
             inkscape:connector-curvature="0" /></g><g
           id="g130"
           transform="translate(522.8804,736.9995)"><path
             d="m 0,0 0,-28.047 -3.116,0 0,12.774 -17.186,0 0,-12.774 -3.116,0 0,28.047 3.116,0 0,-12.695 17.186,0 L -3.116,0 0,0 Z"
             style="fill:#929292;fill-opacity:1;fill-rule:nonzero;stroke:none"
             id="path132"
             inkscape:connector-curvature="0" /></g><g
           id="g134"
           transform="translate(550.0293,736.9995)"><path
             d="m 0,0 0,-28.047 -3.352,0 -16.903,23.379 0,-23.379 -3.117,0 0,28.047 3.376,0 16.88,-23.379 L -3.116,0 0,0 Z"
             style="fill:#929292;fill-opacity:1;fill-rule:nonzero;stroke:none"
             id="path136"
             inkscape:connector-curvature="0" /></g><g
           id="g138"
           transform="translate(559.897,731.2378)"><path
             d="m 0,0 c -2.77,-2.292 -4.155,-5.052 -4.155,-8.281 0,-3.23 1.385,-5.99 4.155,-8.281 C 2.77,-18.854 6.106,-20 10.01,-20 c 3.903,0 7.239,1.146 10.01,3.438 2.769,2.291 4.154,5.051 4.154,8.281 0,3.229 -1.385,5.989 -4.154,8.281 C 17.249,2.292 13.913,3.438 10.01,3.438 6.106,3.438 2.77,2.292 0,0 m -2.195,-18.379 c -3.385,2.786 -5.076,6.152 -5.076,10.098 0,3.945 1.691,7.317 5.076,10.117 3.367,2.786 7.436,4.18 12.205,4.18 4.768,0 8.844,-1.394 12.229,-4.18 3.367,-2.8 5.052,-6.172 5.052,-10.117 0,-3.946 -1.685,-7.312 -5.052,-10.098 -3.385,-2.8 -7.461,-4.199 -12.229,-4.199 -4.769,0 -8.838,1.399 -12.205,4.199"
             style="fill:#929292;fill-opacity:1;fill-rule:nonzero;stroke:none"
             id="path140"
             inkscape:connector-curvature="0" /></g><g
           id="g142"
           transform="translate(593.042,736.9995)"><path
             d="m 0,0 0,-25.469 15.747,0 0,-2.578 -18.863,0 L -3.116,0 0,0 Z"
             style="fill:#929292;fill-opacity:1;fill-rule:nonzero;stroke:none"
             id="path144"
             inkscape:connector-curvature="0" /></g><g
           id="g146"
           transform="translate(613.5098,731.2378)"><path
             d="m 0,0 c -2.77,-2.292 -4.155,-5.052 -4.155,-8.281 0,-3.23 1.385,-5.99 4.155,-8.281 C 2.77,-18.854 6.106,-20 10.01,-20 c 3.903,0 7.239,1.146 10.01,3.438 2.769,2.291 4.154,5.051 4.154,8.281 0,3.229 -1.385,5.989 -4.154,8.281 C 17.249,2.292 13.913,3.438 10.01,3.438 6.106,3.438 2.77,2.292 0,0 m -2.195,-18.379 c -3.385,2.786 -5.076,6.152 -5.076,10.098 0,3.945 1.691,7.317 5.076,10.117 3.367,2.786 7.436,4.18 12.205,4.18 4.768,0 8.844,-1.394 12.229,-4.18 3.367,-2.8 5.052,-6.172 5.052,-10.117 0,-3.946 -1.685,-7.312 -5.052,-10.098 -3.385,-2.8 -7.461,-4.199 -12.229,-4.199 -4.769,0 -8.838,1.399 -12.205,4.199"
             style="fill:#929292;fill-opacity:1;fill-rule:nonzero;stroke:none"
             id="path148"
             inkscape:connector-curvature="0" /></g><g
           id="g150"
           transform="translate(646.9146,712.8784)"><path
             d="m 0,0 c -3.384,2.786 -5.076,6.152 -5.076,10.098 0,3.932 1.692,7.298 5.076,10.097 3.368,2.786 7.437,4.18 12.205,4.18 2.345,0 4.588,-0.371 6.729,-1.113 l -1.228,-2.383 c -1.747,0.612 -3.581,0.918 -5.501,0.918 -3.903,0 -7.24,-1.14 -10.009,-3.418 -2.771,-2.292 -4.155,-5.052 -4.155,-8.281 0,-3.23 1.384,-5.99 4.155,-8.282 2.769,-2.292 6.106,-3.437 10.009,-3.437 1.574,0 3.101,0.208 4.58,0.625 l 0,9.883 -7.058,0 0,2.578 10.174,0 0,-14.199 -0.944,-0.332 C 16.801,-3.821 14.55,-4.199 12.205,-4.199 7.437,-4.199 3.368,-2.8 0,0"
             style="fill:#929292;fill-opacity:1;fill-rule:nonzero;stroke:none"
             id="path152"
             inkscape:connector-curvature="0" /></g><g
           id="g154"
           transform="translate(691.4624,736.9995)"><path
             d="m 0,0 -10.411,-14.629 0,-13.418 -3.116,0 0,13.418 L -23.938,0 -20.326,0 -11.969,-11.758 -3.588,0 0,0 Z"
             style="fill:#929292;fill-opacity:1;fill-rule:nonzero;stroke:none"
             id="path156"
             inkscape:connector-curvature="0" /></g><g
           id="g158"
           transform="translate(713.0635,708.6987)"><path
             d="m 0,0 c -2.188,0.078 -4.194,0.554 -6.02,1.426 -2.077,0.989 -3.486,2.311 -4.226,3.965 L -7.318,6.27 C -6.815,5.149 -5.792,4.245 -4.25,3.555 -2.896,2.956 -1.433,2.624 0.142,2.559 2.55,2.48 4.563,2.981 6.185,4.062 c 1.449,0.964 2.211,2.097 2.291,3.399 0.125,2.448 -2.582,4.316 -8.122,5.605 -3.998,0.925 -6.854,2.214 -8.569,3.868 -1.307,1.262 -1.921,2.682 -1.842,4.257 0.142,2.669 1.511,4.662 4.108,5.977 2.061,1.041 4.556,1.504 7.483,1.387 3.526,-0.131 6.343,-1.133 8.452,-3.008 L 7.696,23.789 C 6.169,25.156 4.068,25.892 1.394,25.996 -0.905,26.074 -2.81,25.735 -4.32,24.98 -5.973,24.134 -6.846,22.832 -6.94,21.074 -7.067,18.678 -4.359,16.836 1.181,15.547 5.178,14.622 8.034,13.327 9.75,11.66 11.056,10.384 11.67,8.952 11.591,7.363 11.466,5.267 10.316,3.496 8.145,2.051 6.067,0.671 3.557,-0.02 0.614,-0.02 0.409,-0.02 0.204,-0.013 0,0"
             style="fill:#929292;fill-opacity:1;fill-rule:nonzero;stroke:none"
             id="path160"
             inkscape:connector-curvature="0" /></g><g
           id="g162"
           transform="translate(744.6504,736.9995)"><path
             d="m 0,0 0,-2.578 -14.188,0 0,-10.117 11.213,0 0,-2.578 -11.213,0 0,-10.196 14.188,0 0,-2.578 -17.305,0 0,28.047 L 0,0 Z"
             style="fill:#929292;fill-opacity:1;fill-rule:nonzero;stroke:none"
             id="path164"
             inkscape:connector-curvature="0" /></g><g
           id="g166"
           transform="translate(759.6406,724.2065)"><path
             d="m 0,0 c 1.7,0 3.156,0.495 4.368,1.484 1.196,1.003 1.794,2.207 1.794,3.614 0,1.406 -0.598,2.61 -1.794,3.613 C 3.156,9.713 1.7,10.215 0,10.215 l -9.064,0 L -9.064,0 0,0 Z m 10.506,-15.254 -3.494,0 -7.955,12.676 -8.121,0 0,-12.656 -3.118,0 0,28.027 12.182,0 c 2.566,0 4.754,-0.755 6.563,-2.266 C 8.373,9.03 9.278,7.22 9.278,5.098 9.278,3.34 8.625,1.764 7.318,0.371 6.044,-0.983 4.407,-1.882 2.408,-2.324 l 8.098,-12.93 z"
             style="fill:#929292;fill-opacity:1;fill-rule:nonzero;stroke:none"
             id="path168"
             inkscape:connector-curvature="0" /></g><g
           id="g170"
           transform="translate(797.8379,736.9995)"><path
             d="m 0,0 -21.436,-28.047 -4.154,0 0,28.047 3.115,0 0,-24.609 L -3.683,0 0,0 Z"
             style="fill:#929292;fill-opacity:1;fill-rule:nonzero;stroke:none"
             id="path172"
             inkscape:connector-curvature="0" /></g><path
           d="m 798.807,737.136 3.139,0 0,-28.184 -3.139,0 0,28.184 z"
           style="fill:#929292;fill-opacity:1;fill-rule:nonzero;stroke:none"
           id="path174"
           inkscape:connector-curvature="0" /><g
           id="g176"
           transform="translate(820.9492,711.2573)"><path
             d="m 0,0 c 2.787,0 5.352,0.632 7.697,1.895 l 0,-2.969 C 5.273,-2.077 2.707,-2.578 0,-2.578 c -4.768,0 -8.836,1.399 -12.205,4.199 -3.383,2.786 -5.075,6.152 -5.075,10.098 0,3.945 1.692,7.311 5.075,10.097 3.369,2.8 7.437,4.2 12.205,4.2 2.707,0 5.273,-0.502 7.697,-1.504 l 0,-2.969 C 5.352,22.806 2.787,23.437 0,23.437 c -3.902,0 -7.239,-1.145 -10.009,-3.437 -2.77,-2.292 -4.155,-5.052 -4.155,-8.281 0,-3.23 1.385,-5.99 4.155,-8.281 C -7.239,1.146 -3.902,0 0,0"
             style="fill:#929292;fill-opacity:1;fill-rule:nonzero;stroke:none"
             id="path178"
             inkscape:connector-curvature="0" /></g><g
           id="g180"
           transform="translate(848.666,736.9995)"><path
             d="m 0,0 0,-2.578 -14.189,0 0,-10.117 11.214,0 0,-2.578 -11.214,0 0,-10.196 14.189,0 0,-2.578 -17.305,0 0,28.047 L 0,0 Z"
             style="fill:#929292;fill-opacity:1;fill-rule:nonzero;stroke:none"
             id="path182"
             inkscape:connector-curvature="0" /></g><g
           id="g184"
           transform="translate(859.9971,708.6987)"><path
             d="m 0,0 c -2.188,0.078 -4.194,0.554 -6.021,1.426 -2.076,0.989 -3.485,2.311 -4.224,3.965 L -7.318,6.27 C -6.815,5.149 -5.792,4.245 -4.249,3.555 -2.896,2.956 -1.433,2.624 0.142,2.559 2.55,2.48 4.564,2.981 6.186,4.062 c 1.447,0.964 2.21,2.097 2.29,3.399 0.125,2.448 -2.582,4.316 -8.122,5.605 -3.998,0.925 -6.854,2.214 -8.57,3.868 -1.306,1.262 -1.92,2.682 -1.841,4.257 0.142,2.669 1.511,4.662 4.108,5.977 2.061,1.041 4.556,1.504 7.483,1.387 3.526,-0.131 6.343,-1.133 8.452,-3.008 L 7.696,23.789 C 6.169,25.156 4.068,25.892 1.394,25.996 -0.905,26.074 -2.81,25.735 -4.32,24.98 -5.973,24.134 -6.847,22.832 -6.94,21.074 -7.067,18.678 -4.359,16.836 1.181,15.547 5.178,14.622 8.034,13.327 9.75,11.66 11.057,10.384 11.67,8.952 11.592,7.363 11.465,5.267 10.316,3.496 8.145,2.051 6.067,0.671 3.557,-0.02 0.614,-0.02 0.409,-0.02 0.204,-0.013 0,0"
             style="fill:#929292;fill-opacity:1;fill-rule:nonzero;stroke:none"
             id="path186"
             inkscape:connector-curvature="0" /></g></g></g></g></svg>